# xmcd
#
# Track frame offsets: 
#        150
#        13771
#        24515
#        40166
#        51962
#        69533
#        84147
#        96766
#        107947
#        121456
#
# Disc length: 1807 seconds
#
# Revision: 1
# Processed by: cddbd v1.5.2PL0 Copyright (c) Steve Scherf et al.
# Submitted via: ExactAudioCopy v0.95a5
#
DISCID=7c070d0a
DTITLE=Country Gospel - Peace In The Valley
DYEAR=2002
DGENRE=Gospel
TTITLE0=Peace In The Valley - The Singing Gospelaires
TTITLE1=Turn Uour Radio On - The Singing Gospelaires
TTITLE2=He Cares - Tommy Daugherty
TTITLE3=Crying In The Chapel - The Singing Gospelaires
TTITLE4=Sunday Morning Coming Down - Nat Stuckey
TTITLE5=In The Garden - The Singing Gospelaires
TTITLE6=The Prince From Galilee - Touch My Soul
TTITLE7=Swing Low Sweet Chariot - The Singing Gospelaires
TTITLE8=Before It's Time For Amen - Tommy Daugherty
TTITLE9=Take My Precious Lord - The Singing Gospelaires
EXTD=
EXTT0=
EXTT1=
EXTT2=
EXTT3=
EXTT4=
EXTT5=
EXTT6=
EXTT7=
EXTT8=
EXTT9=
PLAYORDER=
